# xmcd
#
# Track frame offsets:
#	150
#	10082
#	18065
#	24942
#	33745
#	46510
#	57792
#	65805
#	82297
#	96170
#	106450
#	117245
#	132860
#	143362
#	153055
#	166352
#	178092
#	190077
#
# Disc length: 2703 seconds
# Revision: 2
# Processed by: cddbd v1.5.2PL0 Copyright (c) Steve Scherf et al.
# Submitted via: dBpowerAMP V12.0
#
DISCID=de0a8d12
DTITLE=Various Artist - From Cake-Walk to Ragtime CD1
DYEAR=1997
DGENRE=Blues
TTITLE0=Cullen Joseph - Eli Green's Cake-walk
TTITLE1=Orch Anonyme - Cake-walk
TTITLE2=Metropolitan Orchestra - Smoky Mokes
TTITLE3=Olly Oakley - Whisling Rufus
TTITLE4=Victor Minstrels - The Cake-walk
TTITLE5=Sousa's Band  - Whistling Rufus
TTITLE6=Orch Anonyme - (unidentified) Cake-walk
TTITLE7=Victor (Dance) Orchestra - CAke-walk in the Sky
TTITLE8=Ossman-Dudley Trio - St.Louis Tickle
TTITLE9=Ossman-Dudley Trio - Dixie Girl
TTITLE10=Musique De La Garde Republicai  - Le Vrai Cake-walk
TTITLE11=Orch Apga - Anona
TTITLE12=Vess L. Ossman - A Bunch of Rags
TTITLE13=Vess L. Ossman - The Buffalo Rag
TTITLE14=Collins Arthur - Alexander's Ragtime Band
TTITLE15=Ditcham William - Alabama Skedaddle
TTITLE16=Victor Military Band - Alexander's Ragtime Band
TTITLE17=Victor Military Band - Slippery Place Rag
EXTD=
EXTT0=
EXTT1=
EXTT2=
EXTT3=
EXTT4=
EXTT5=
EXTT6=
EXTT7=
EXTT8=
EXTT9=
EXTT10=
EXTT11=
EXTT12=
EXTT13=
EXTT14=
EXTT15=
EXTT16=
EXTT17=
PLAYORDER=
